<?xml version="1.0" encoding="utf-8"?>
<!-- Generator: Adobe Illustrator 27.1.1, SVG Export Plug-In . SVG Version: 6.00 Build 0)  -->

<svg version="1.1" id="apple" xmlns="http://www.w3.org/2000/svg" xmlns:xlink="http://www.w3.org/1999/xlink" x="0px" y="0px"
	 viewBox="0 0 64 64" style="enable-background:new 0 0 64 64;" xml:space="preserve">
<style type="text/css">
	.st0{fill:#C01823;}
	.st1{fill:#FFFFFF;}
	.st2{fill:#863D11;}
	.st3{fill:#4CB748;}
    #apple:hover #fruit {
        fill: #4CB748;
        transition: all 0.7s ease-in;
    }
    #apple:hover #leaf {
        fill: rgb(255, 235, 80);
        
        transition: all 0.7s ease-in;
    }
</style>
<script>
const apple = document.querySelector("#apple");

function logId() {
	console.log(this.id)
}

apple.addEventListener("click", logId);
</script>
<path id="fruit" class="st0" d="M42.8,15c-3.5-0.7-6.8,0.9-9.4,2.2C20.9,9.3,7.7,23.5,10.1,37.6C11.6,47.7,22,65.4,33.4,60
	c11.4,5.4,21.9-12.4,23.3-22.4C58.4,26.9,52.1,16.8,42.8,15z"/>
<path id="line" class="st1" d="M15.4,38.5c-0.2,0-0.5-0.1-0.7-0.2c-0.2-0.2-0.3-0.4-0.3-0.6c-1.3-8.7,3.8-17,11.4-18.5
	c0.3-0.1,0.5,0,0.8,0.2c0.2,0.2,0.4,0.4,0.4,0.7c0.1,0.3,0,0.5-0.2,0.8c-0.2,0.2-0.4,0.4-0.7,0.4c-6.6,1.3-11,8.6-9.8,16.2
	c0,0.1,0,0.3,0,0.4c0,0.1-0.1,0.3-0.2,0.4c-0.1,0.1-0.2,0.2-0.3,0.2C15.7,38.5,15.5,38.5,15.4,38.5L15.4,38.5z"/>
<path id="branch" class="st2" d="M46.9,5.8c0,0.3-0.1,0.5-0.3,0.7c-0.2,0.2-0.4,0.3-0.7,0.3c-2.7,0-5.4,1-7.5,2.8
	c-2.1,1.8-3.5,4.3-3.9,7l0,0c-0.1,0.5-0.1,1.1-0.1,1.6c0,0.1-0.1,0.1-0.1,0.1c-0.1,0.1-0.2,0.2-0.4,0.2c-0.1,0-0.3,0.1-0.4,0
	c-0.1,0-0.5,0-1.1-0.2c0-1.8,0.3-3.5,1-5.2c0.7-1.6,1.7-3.1,2.9-4.4c1.3-1.3,2.7-2.3,4.4-2.9c1.6-0.7,3.4-1,5.2-1
	c0.3,0,0.5,0.1,0.7,0.3C46.8,5.2,46.9,5.5,46.9,5.8z"/>
<path id="leaf" class="st3" d="M34.6,16.5C33.8,7.6,27.1,3.8,21.4,3.1c-0.1,0-0.3,0-0.4,0c-0.1,0-0.3,0.1-0.4,0.2
	c-0.1,0.1-0.2,0.2-0.2,0.3c-0.1,0.1-0.1,0.3-0.1,0.4c0.2,6.9,4.4,13.3,13.2,14.4c0.1,0,0.3,0,0.4,0c0.1,0,0.3-0.1,0.4-0.2
	c0,0,0.1-0.1,0.1-0.1C34.8,17.5,34.6,17.5,34.6,16.5z"/>
</svg>