<!-- Generator: Adobe Illustrator 27.1.1, SVG Export Plug-In . SVG Version: 6.00 Build 0)  -->
        <svg version="1.1" id="berry-1" xmlns="http://www.w3.org/2000/svg" xmlns:xlink="http://www.w3.org/1999/xlink" x="0px" y="0px"
             viewBox="0 0 122.6 122.9" style="enable-background:new 0 0 122.6 122.9;" xml:space="preserve">
        <style type="text/css">
            .st0{fill:#89BF3F;}
            .st1{fill:#203B79;}
            .st2{fill-rule:evenodd;clip-rule:evenodd;fill:#1F49A3;}
            .st3{fill-rule:evenodd;clip-rule:evenodd;fill:#203B79;}
            .st4{fill:#4CA71E;}
            #berry-1:hover #Outer-part {
                fill: rgb(171, 103, 240);
                transition:all 0.5s ease-out;
            }
            #berry-1:hover #inner-part{
                fill: cornflowerblue;
                transition:all 0.5s ease-out;
            }
			#berry-1:hover #leaf {
				fill: #4CA71E;
				 transition:all 0.5s ease-out;
			}
            #berry-1:hover .st4 {
                fill: #89BF3F;
				 transition:all 0.5s ease-out;
            }
           
        </style>
        <path id="leaf" class="st0" d="M56.7,46.6l-1-3.3c0-0.2,0.1-0.4,0.1-0.7c4.7-27.1-8-46.4-47.1-42c7.7,20.6,5.6,50,42.3,46
            C55,46.2,52.3,47,56.7,46.6L56.7,46.6z M64.8,42.2l1.8-1.5l0.4-0.1c18.1-3.9,27-16.7,14.3-40c-10.9,10-29.9,16.1-18.1,38.1
            C64.6,41.2,63.4,39.7,64.8,42.2L64.8,42.2z M67,35.4c0.3-11.3,10.1-19.4,12.8-28.2C78.9,21.6,74.2,24.3,67,35.4z M48.5,39.9
            c-15.4-6.7-21-24.6-31.6-33.3C36.1,15.8,37.2,23.7,48.5,39.9z"/>
        <path id="Outer-part" class="st1" d="M22.7,119.2c-5.2-2.4-9.8-5.9-13.5-10.2L9,108.6C-4.9,91.6-2.3,66.5,14.7,52.6
            c7.1-5.8,16-8.9,25.1-8.9c7.9,0,15.6,2.3,22.2,6.7c0.2,0.1,0.4,0.2,0.5,0.4l0,0c1.4-2.4,3-4.6,4.9-6.5l0.2-0.2
            c10.9-11,28.1-12.7,41-4l0.3,0.2c14.7,10.2,18.3,30.4,8.1,45c-8.9,12.8-25.8,17.4-40,10.9c-7.2,20.8-29.9,31.7-50.7,24.5
            C25.1,120.2,23.9,119.7,22.7,119.2L22.7,119.2z"/>
        <path id="inner-part" class="st2" d="M78.1,92.8c14.4,6.8,31.6,0.6,38.4-13.9c6-12.7,2-27.8-9.5-35.9l0,0l-0.2-0.2l0,0
            c-13.3-8.9-31.2-5.4-40.2,7.8c-0.5,0.7-0.9,1.4-1.3,2.1c8.9,7.6,14,18.6,14,30.3C79.3,86.4,78.9,89.6,78.1,92.8L78.1,92.8z
             M11.7,106.5c12.9,15.3,35.9,17.3,51.2,4.3s17.3-35.9,4.3-51.2c-2-2.3-4.2-4.4-6.7-6.1l0,0l-0.3-0.2l0,0C43.5,42,20.9,46.4,9.7,63.1
            C0.7,76.4,1.5,94,11.7,106.5L11.7,106.5z"/>
        <path class="st3" d="M103.6,81.6c0.6-0.2,1.3,0.2,1.4,0.8c0.2,0.6-0.2,1.2-0.7,1.4c-1.5,0.5-2.9,1.1-4.1,2c-1.2,0.8-2.3,1.8-3.2,3
            c-0.4,0.5-1.1,0.6-1.7,0.2s-0.6-1.1-0.2-1.7l0,0c1.1-1.3,2.3-2.5,3.8-3.4C100.4,82.9,101.9,82.1,103.6,81.6L103.6,81.6z M44.2,109.9
            c-0.6,0.5-0.7,1.5-0.2,2.1s1.5,0.7,2.1,0.2c0.1-0.1,0.2-0.2,0.3-0.3c1.3-1.4,2.8-2.6,4.5-3.6c1.6-0.9,3.3-1.7,5.1-2.1
            c0.8-0.2,1.3-1,1.1-1.8c0,0,0,0,0,0c-0.2-0.8-1-1.3-1.8-1.1c0,0,0,0,0,0c-2.1,0.5-4.1,1.3-5.9,2.4C47.5,106.8,45.8,108.2,44.2,109.9
            L44.2,109.9z"/>
        <path class="st4" d="M67,35.4c0.3-11.3,10.1-19.4,12.8-28.2C78.9,21.6,74.2,24.3,67,35.4z M48.5,39.9c-15.4-6.7-21-24.6-31.6-33.3
            C36.1,15.8,37.2,23.7,48.5,39.9z"/>
        </svg>