 
     <svg class="shake" id="coffee" data-name="Layer 1" xmlns="http://www.w3.org/2000/svg" viewBox="0 0 56.92 58.43">
       <defs>
         <style>
           .cls-1 {
             fill: #915441;
           }
     
           .cls-2 {
             fill: #35251c;
           }
           #coffee:hover #Beans {
            fill: #35251c;
            transition: all 0.5s ease;
           }
           #coffee:hover #Border{
            fill: #915441;
            transition: all 0.5s ease;
           }
           .shake {
            transition: transform 0.5s;
          }
          
          .shake:hover {
            animation: shake-animation 0.5s infinite;
          }
          
          @keyframes shake-animation {
            0% { transform: translate(0, 0); }
            10%, 30%, 50%, 70%, 90% { transform: translate(-2px, 0); }
            20%, 40%, 60%, 80% { transform: translate(2px, 0); }
            100% { transform: translate(0, 0); }
          }
          
         </style>
       </defs>
       <path id="Beans" class="cls-1" d="m33.4,13.53C35.62,5.43,42.19.18,48.06,1.79s8.84,9.48,6.61,17.58c-2.22,8.1-8.79,13.35-14.66,11.74-5.87-1.61-8.84-9.48-6.61-17.58Zm-24.55,4.82c7.52-3.57,17.6,1.93,22.51,12.28,4.91,10.35,2.8,21.64-4.72,25.21-7.52,3.57-17.6-1.93-22.51-12.28s-2.8-21.64,4.72-25.21Z"/>
       <path id="Border" class="cls-2" d="m32.72,29.99c-5.26-11.09-16.25-16.88-24.51-13S-2.48,33.11,2.78,44.2c4.15,8.74,11.87,14.22,19,14.22,1.9,0,3.79-.41,5.51-1.22,4.06-1.94,6.88-5.9,7.86-11.09.9-5.5.05-11.14-2.43-16.12Zm-27.23,12.92c-3.55-7.5-3.22-15.48.32-20.15-.22,3.29.71,8,5.33,13.59,2.26,2.69,4.67,5.26,7.21,7.7,4.06,4,6.62,6.59,6.82,10.77-6.69,2.41-15.31-2.71-19.68-11.91Zm26.71,2.6c-.45,2.98-1.94,5.71-4.21,7.7-.71-4.47-3.68-7.43-7.56-11.29-2.46-2.37-4.8-4.86-7-7.47-6.64-8.05-4.5-13.49-3.79-14.82,1.3-.58,2.71-.88,4.13-.88,6,0,12.57,4.86,16.21,12.52,2.21,4.4,2.98,9.38,2.22,14.24ZM55.81,7.62c-1.42-3.78-4-6.37-7.35-7.28s-6.89,0-10,2.5c-3.18,2.66-5.46,6.25-6.51,10.27-2.44,8.88,1,17.59,7.67,19.42.84.24,1.71.35,2.58.35,2.74-.07,5.36-1.08,7.45-2.85,3.18-2.66,5.45-6.26,6.48-10.28,1.16-3.98,1.05-8.22-.32-12.13Zm-21,6.3c1.41-5.13,4.68-9,8.25-10.38-1.43,1.88-2.67,4.8-2.77,9.32-.03,2.58.07,5.17.3,7.74.32,4.08.51,6.51-1.1,8.73-4.43-1.93-6.52-8.57-4.65-15.41h-.03Zm18.39,5.05c-.86,3.41-2.77,6.46-5.45,8.73-1.43,1.22-3.2,1.97-5.07,2.15,1.42-2.78,1.19-5.83.9-9.48-.2-2.47-.28-4.96-.23-7.44.15-7.1,3.5-9.13,4.59-9.61,2.44.9,4.32,2.87,5.09,5.35,1.14,3.33,1.21,6.93.2,10.3h-.03Z"/>
     </svg>
