<?xml version="1.0" encoding="utf-8"?>
<!-- Generator: Adobe Illustrator 27.1.1, SVG Export Plug-In . SVG Version: 6.00 Build 0)  -->
<svg version="1.1" id="Lemon-1" xmlns="http://www.w3.org/2000/svg" xmlns:xlink="http://www.w3.org/1999/xlink" x="0px" y="0px"
	 viewBox="0 0 90 90" style="enable-background:new 0 0 90 90;" xml:space="preserve">
<style type="text/css">
	.st0{fill:#FFD10A;}
	.st1{fill:#FFE540;}
	.st2{fill:#FFCE1F;}
	#Lemon-1:hover #Beans {
		Fill: rgb(45, 122, 11);
		transition:all 0.4s ease-in;
		transform: rotateZ(60deg);
		transform-origin: center;
	}
	#Lemon-1:hover #Outer-part {
		Fill: rgb(45, 122, 11);
	}
</style>
<script>
const lemon = document.querySelector("#Lemon-1");

function logId() {
	console.log(this.id)
}

lemon.addEventListener("click", logId);
</script>
<circle id="Outer-part" class="st0" cx="45" cy="45" r="42.5"/>
<circle id="inner-part" class="st1" cx="45" cy="45" r="34.2"/>
<path id="Beans" class="st2" d="M39.8,25L39.8,25L45,37.4L50.3,25l0,0c1.3-2.9,0-6.3-2.9-7.6c-2.9-1.3-6.3,0-7.6,2.9
	C39.1,21.8,39.1,23.5,39.8,25L39.8,25z M27.9,35.2L27.9,35.2l12.5,5l-5-12.5l0,0c-1.1-3-4.4-4.5-7.4-3.4s-4.5,4.4-3.4,7.4
	C25.2,33.3,26.4,34.5,27.9,35.2L27.9,35.2z M56.5,27.1L56.5,27.1l-5,12.5l12.5-5l0,0c3-1.1,4.5-4.4,3.4-7.4s-4.4-4.5-7.4-3.4
	c-0.8,0.3-1.5,0.7-2,1.3C57.3,25.7,56.8,26.4,56.5,27.1z M63.3,55.7L63.3,55.7l-12.5-5l5,12.5l0,0c1.2,2.9,4.6,4.3,7.5,3.1
	c2.9-1.2,4.3-4.6,3.1-7.5c-0.3-0.7-0.7-1.3-1.2-1.8C64.7,56.4,64,56,63.3,55.7z M50.2,65L50.2,65L45,52.6L39.7,65l0,0
	c-1.3,2.9,0,6.3,2.8,7.6s6.3,0,7.6-2.8c0.3-0.8,0.5-1.6,0.5-2.4C50.7,66.6,50.6,65.8,50.2,65z M65,39.8L65,39.8L52.6,45L65,50.3l0,0
	c2.9,1.3,6.3,0,7.6-2.8s0-6.3-2.8-7.6c-0.8-0.3-1.6-0.5-2.4-0.5C66.6,39.3,65.7,39.4,65,39.8z M25,50.3L25,50.3L37.4,45L25,39.7l0,0
	c-0.7-0.3-1.6-0.5-2.4-0.5c-3.2,0-5.8,2.6-5.8,5.8c0,3.2,2.6,5.8,5.8,5.8l0,0C23.4,50.7,24.2,50.6,25,50.3z M34.6,62.9L34.6,62.9
	l5-12.5l-12.5,5l0,0c-0.8,0.3-1.4,0.7-2,1.3c-2.3,2.3-2.3,5.9,0,8.2c2.3,2.3,5.9,2.3,8.2,0l0,0C33.8,64.3,34.3,63.6,34.6,62.9z"/>
</svg>
