<?xml version="1.0" encoding="utf-8"?>
<!-- Generator: Adobe Illustrator 27.1.1, SVG Export Plug-In . SVG Version: 6.00 Build 0)  -->
<svg version="1.1" id="lemon-2" xmlns="http://www.w3.org/2000/svg" xmlns:xlink="http://www.w3.org/1999/xlink" x="0px" y="0px"
        viewBox="0 0 55 55" style="enable-background:new 0 0 55 55;" xml:space="preserve">
   <style type="text/css">
       .st0{fill:#F4C44E;}
       .st1{fill:#F9EA80;}
       .st2{fill:#F9DA49;}
       .st3{fill:#F9D70B;}
       #lemon-2:hover #Small-lemon{
        fill: chartreuse;
        
       }
       #lemon-2:hover #Small-out{
        transition:all 0.5s ease;
		transform: rotate(360deg);
		transform-origin: center;
       }
	   
   </style>
   <script>
const lemons = document.querySelector("#lemon-2");

function logId() {
	console.log(this.id)
}

lemons.addEventListener("click", logId);
</script>
   <g>
       <path id="Small-out" class="st0" d="M55,31H13c0,11.6,9.4,21,21,21S55,42.6,55,31z"/>
       <path id="Small-lemon" class="st1" d="M51,31H17c0,9.4,7.6,17,17,17S51,40.4,51,31z"/>
       <path id="Cut-part" class="st2" d="M33,31h2v17h-2V31z M34.7,30.3l12,12l-1.4,1.4l-12-12L34.7,30.3z M33.3,30.3l1.4,1.4l-12,12
           l-1.4-1.4L33.3,30.3z"/>
       <path id="whole-lemon" class="st3" d="M48,11.3l0.4-0.4c1.6-1.6,1.6-4.1,0-5.7s-4.1-1.6-5.7,0l-0.2,0.2c-9.1-6.1-23.1-3.8-33,6.1
           s-12.3,23.9-6.1,33l-0.2,0.2c-1.6,1.6-1.6,4.1,0,5.7s4.1,1.6,5.7,0l0.4-0.4c5.5,3.3,12.7,3.6,19.6,1.2C19.7,49,13,40.8,13,31h36.2
           C51.6,24.1,51.3,16.9,48,11.3z M32.9,9c-0.4,1.2-1.6,1.6-2.8,1.3c0.6,0.1-0.1,0-0.2,0c-0.2,0-0.3,0-0.5,0c-0.1,0-0.1,0-0.2,0
           c0,0-0.1,0-0.1,0c-0.2,0-0.3,0-0.5,0.1c-1.2,0.2-2.3-0.6-2.5-1.8C26,7.5,26.8,6.3,28,6.1c1.2-0.2,2.4-0.1,3.6,0.2
           C32.7,6.5,33.2,8,32.9,9z"/>
   </g>
   </svg>
