<?xml version="1.0" encoding="utf-8"?>
<!-- Generator: Adobe Illustrator 27.1.1, SVG Export Plug-In . SVG Version: 6.00 Build 0)  -->
<svg version="1.1" id="Watermelon-1" xmlns="http://www.w3.org/2000/svg" xmlns:xlink="http://www.w3.org/1999/xlink" x="0px" y="0px"
	 viewBox="0 0 50.5 50.5" style="enable-background:new 0 0 50.5 50.5;" xml:space="preserve">
<style type="text/css">
	.st0{fill:#88C057;}
	.st1{fill:#E22F37;}
	.st2{fill:#231F20;}

#Watermelon-1:hover #Green-part {
	fill: rgb(176, 182, 9);
	transition: all 1s ease-out;
}
#Watermelon-1:hover #Beans {
	transition:all 0.4s ease-in;
		transform: rotateY(360deg);
		transform-origin: center;
	
}
	
</style>
<path id="Green-part" class="st0" d="M18.4,24l1.4,4.5c0.2,1.1-0.6,2.2-1.7,2.6L17,31.5l-0.3,1c-0.4,1.3-1.4,2.3-2.7,2.7
	c-1.2,0.4-3.7-2.2-4.7-2.1L0,42.4c11.8,11,30.2,10.8,41.7-0.7S53.4,11.8,42.4,0L18.4,24z"/>
<path id="Red-part" class="st1" d="M37.1,5.3L18.4,24l1.4,4.5c0.2,1.1-0.6,2.2-1.7,2.6L17,31.5l-0.3,1c-0.4,1.3-1.4,2.3-2.7,2.7
	c-1.2,0.4-3.7-2.2-4.7-2.1l-4,4c0,0,0,0,0,0c8.8,9.6,22.4,8.7,31.4-0.3S46.6,14.1,37.1,5.3C37.1,5.3,37.1,5.3,37.1,5.3z"/>
<path id="Beans" class="st2" d="M4.5,15.5C5.3,15.5,6,16.2,6,17s-0.7,1.5-1.5,1.5S3,17.8,3,17S3.7,15.5,4.5,15.5z M16.5,37.5
	c0.8,0,1.5,0.7,1.5,1.5s-0.7,1.5-1.5,1.5c-0.8,0-1.5-0.7-1.5-1.5S15.7,37.5,16.5,37.5z M26,24.1c0.8,0,1.5,0.7,1.5,1.5
	s-0.7,1.5-1.5,1.5s-1.5-0.7-1.5-1.5S25.1,24.1,26,24.1z M30.9,19.2c0.8,0,1.5,0.7,1.5,1.5s-0.7,1.5-1.5,1.5s-1.5-0.7-1.5-1.5
	S30.1,19.2,30.9,19.2z M28.1,36.1c0.8,0,1.5,0.7,1.5,1.5s-0.7,1.5-1.5,1.5s-1.5-0.7-1.5-1.5S27.3,36.1,28.1,36.1z M33,31.2
	c0.8,0,1.5,0.7,1.5,1.5s-0.7,1.5-1.5,1.5s-1.5-0.7-1.5-1.5S32.2,31.2,33,31.2z M38,26.2c0.8,0,1.5,0.7,1.5,1.5s-0.7,1.5-1.5,1.5
	s-1.5-0.7-1.5-1.5S37.2,26.2,38,26.2z M35.9,14.2c0.8,0,1.5,0.7,1.5,1.5c0,0.8-0.7,1.5-1.5,1.5s-1.5-0.7-1.5-1.5
	C34.4,14.9,35,14.2,35.9,14.2z M22.4,34.7c0.8,0,1.5,0.7,1.5,1.5s-0.7,1.5-1.5,1.5s-1.5-0.7-1.5-1.5S21.6,34.7,22.4,34.7z
	 M27.5,29.5c0.8,0,1.5,0.7,1.5,1.5s-0.7,1.5-1.5,1.5S26,31.8,26,31S26.7,29.5,27.5,29.5z M32.5,24.5c0.8,0,1.5,0.7,1.5,1.5
	s-0.7,1.5-1.5,1.5S31,26.8,31,26S31.7,24.5,32.5,24.5z M7.5,25.5C8.3,25.5,9,26.2,9,27s-0.7,1.5-1.5,1.5S6,27.8,6,27
	S6.7,25.5,7.5,25.5z M13.5,17.5c0.8,0,1.5,0.7,1.5,1.5s-0.7,1.5-1.5,1.5S12,19.8,12,19S12.7,17.5,13.5,17.5z M37.3,19.9
	c0.8,0,1.5,0.7,1.5,1.5s-0.7,1.5-1.5,1.5s-1.5-0.7-1.5-1.5S36.5,19.9,37.3,19.9z"/>
</svg>
